<svg xmlns="http://www.w3.org/2000/svg" viewBox="0 0 64 64" role="img">
  <title>Bulle Crochet — logo avec crochet</title>
  <defs>
    <linearGradient id="g" x1="0" y1="0" x2="1" y2="1">
      <stop offset="0" stop-color="#FADADD"/>
      <stop offset="1" stop-color="#EE6FB9"/>
    </linearGradient>
  </defs>

  <circle cx="32" cy="32" r="28" fill="url(#g)"/>
  <circle cx="46" cy="18" r="6" fill="rgba(255,255,255,.35)"/>

  <!-- cœur -->
  <path d="M32 42c-6-4.2-10-7.9-10-12.2 0-3 2.4-5.3 5.4-5.3 2 0 3.6 1 4.6 2.5 1-1.5 2.6-2.5 4.6-2.5 3 0 5.4 2.3 5.4 5.3 0 4.3-4 8-10 12.2z"
        fill="#fff"/>

  <!-- petit crochet stylisé (trait + crochet au bout) -->
  <path d="M14 46c9-5.5 22-10.7 36-13" stroke="#ffffff" stroke-width="2.5" stroke-linecap="round" opacity=".9" fill="none"/>
  <path d="M50 33c2.6 1 3.4 3 2 4.4-1.1 1.1-2.8 1-4.2-.1" stroke="#ffffff" stroke-width="2.5" stroke-linecap="round" fill="none"/>
</svg>
